<?xml version="1.0" standalone="no"?>
<!DOCTYPE svg PUBLIC "-//W3C//DTD SVG 20010904//EN"
 "http://www.w3.org/TR/2001/REC-SVG-20010904/DTD/svg10.dtd">
<svg version="1.0" xmlns="http://www.w3.org/2000/svg"
 width="11901.000000pt" height="8837.000000pt" viewBox="0 0 11901.000000 8837.000000"
 preserveAspectRatio="xMidYMid meet">
<metadata>
Created by potrace 1.15, written by Peter Selinger 2001-2017
</metadata>
<g transform="translate(0.000000,8837.000000) scale(0.100000,-0.100000)"
fill="#fff" stroke="none">
<path d="M102845 88359 c-183 -25 -389 -91 -575 -184 -105 -53 -147 -79 -595
-365 -237 -151 -475 -299 -1300 -805 -1360 -835 -1714 -1086 -2905 -2061 -228
-186 -441 -359 -473 -384 -31 -25 -57 -49 -56 -55 0 -14 312 -254 979 -752
637 -476 872 -657 1125 -868 764 -637 1218 -1165 1486 -1730 163 -344 242
-675 242 -1015 1 -331 -62 -596 -218 -915 -184 -377 -452 -692 -905 -1065
-184 -151 -365 -311 -641 -567 -649 -603 -798 -727 -1289 -1077 -666 -475
-1023 -718 -2488 -1693 -1031 -685 -1173 -783 -1247 -856 -91 -90 -131 -158
-145 -243 -17 -102 22 -234 101 -351 18 -26 166 -212 329 -413 163 -201 635
-788 1050 -1305 1450 -1809 1989 -2469 2054 -2518 109 -80 290 -137 437 -137
l85 0 240 116 c131 63 444 212 694 331 1001 474 1399 673 1835 916 441 245
835 499 1225 789 493 366 726 498 959 542 103 20 156 20 246 1 135 -29 256
-101 387 -231 l77 -77 78 12 c43 7 260 46 483 86 416 75 583 99 775 110 132 7
297 -7 330 -29 56 -37 118 -190 191 -474 25 -97 59 -225 76 -284 l31 -108 71
0 c39 0 152 9 251 20 390 44 545 45 666 5 115 -38 202 -192 245 -430 10 -59
19 -194 24 -390 5 -165 9 -301 9 -301 3 -5 249 -38 441 -59 537 -61 612 -101
681 -363 32 -121 35 -341 10 -663 -12 -146 -21 -305 -21 -352 l0 -85 78 -17
c453 -97 701 -222 788 -400 27 -56 29 -68 29 -170 -1 -97 -5 -121 -33 -202
-61 -178 -189 -404 -376 -666 l-95 -134 61 -139 c182 -418 559 -1294 930
-2164 1183 -2771 1717 -3972 2401 -5396 238 -496 351 -779 647 -1614 67 -190
157 -439 200 -555 408 -1101 762 -1726 1331 -2347 115 -125 170 -209 220 -334
75 -187 113 -366 159 -744 67 -558 99 -742 162 -940 47 -148 96 -244 221 -432
455 -687 700 -1363 922 -2543 20 -104 40 -213 46 -241 16 -83 100 -208 175
-263 32 -22 35 -23 133 -12 173 19 293 -11 374 -92 76 -76 110 -199 122 -447
3 -74 15 -214 25 -310 33 -302 50 -521 101 -1310 6 -96 14 -178 18 -181 7 -8
243 -81 246 -77 6 7 385 641 570 953 362 609 597 978 913 1432 153 221 234
355 347 578 218 429 344 859 385 1313 16 172 8 625 -14 782 -71 511 -225 1009
-478 1545 -260 550 -352 747 -473 1020 -1488 3350 -2441 7065 -2934 11435
-127 1123 -223 2278 -296 3560 -14 245 -34 562 -45 705 -258 3362 -1182 6388
-2738 8970 -465 771 -1027 1594 -1670 2445 -551 729 -1137 1458 -2077 2585
-248 297 -646 774 -884 1060 -504 604 -523 626 -770 888 -316 336 -681 676
-1426 1327 -479 418 -712 625 -935 830 -175 161 -263 232 -396 320 -178 118
-369 199 -562 240 -113 24 -349 34 -457 19z m3835 -7784 c372 -77 773 -278
1130 -564 222 -178 528 -508 706 -761 491 -698 717 -1495 618 -2180 -43 -297
-128 -533 -298 -830 -43 -74 -169 -319 -280 -545 -257 -519 -354 -690 -520
-910 -84 -112 -284 -308 -396 -388 -235 -167 -548 -283 -927 -343 -137 -22
-464 -30 -605 -15 -624 67 -1221 375 -1848 954 -175 161 -452 444 -565 577
-419 490 -658 998 -741 1575 -22 147 -25 520 -6 670 66 514 266 1053 556 1495
487 740 1204 1148 2227 1265 220 25 390 34 614 30 178 -3 229 -8 335 -30z"/>
<path d="M14991 88260 c-137 -29 -323 -116 -452 -211 -102 -76 -637 -610
-1214 -1214 -253 -264 -678 -700 -945 -970 -895 -903 -1369 -1415 -2016 -2176
-1369 -1610 -2602 -3396 -3594 -5209 -969 -1770 -1709 -3823 -2294 -6361 -281
-1218 -479 -2262 -911 -4799 -293 -1719 -372 -2157 -590 -3280 -142 -728 -231
-1208 -501 -2693 -588 -3240 -837 -4460 -1224 -6007 -305 -1221 -520 -1940
-988 -3320 -141 -414 -219 -797 -253 -1242 -17 -224 -7 -657 20 -865 150
-1159 625 -2044 1438 -2680 107 -84 343 -247 348 -241 2 2 96 244 210 538 816
2111 1024 2664 1070 2846 13 51 36 166 50 256 64 393 77 468 100 555 27 104
64 184 104 226 14 16 72 50 128 77 128 60 200 108 286 190 188 176 262 359
332 816 43 279 57 338 139 596 35 112 97 311 136 443 68 226 417 1454 428
1503 2 13 7 22 11 20 3 -2 40 -20 82 -40 125 -61 203 -82 299 -83 73 0 93 4
141 28 115 56 184 167 276 447 125 376 801 2181 1168 3115 1218 3106 2348
5388 3628 7328 154 234 168 259 155 275 -305 354 -535 666 -629 853 -165 329
-104 526 243 785 53 39 146 103 208 140 l111 69 -6 125 c-4 69 -15 213 -26
320 -27 259 -36 549 -19 632 25 131 75 190 215 258 150 73 314 101 740 125
262 16 402 28 411 38 3 2 -60 132 -138 288 -161 319 -239 504 -263 627 -21
101 -14 153 25 215 87 138 338 189 1116 228 l242 13 32 125 c50 196 125 414
185 539 94 196 180 296 305 356 61 29 72 31 175 30 96 0 121 -4 202 -32 207
-71 423 -198 764 -449 70 -51 130 -93 133 -93 4 0 86 48 183 106 222 134 421
235 543 277 85 28 108 31 210 32 113 0 117 -1 191 -37 144 -71 287 -229 504
-558 67 -102 127 -195 134 -207 7 -14 27 -26 54 -33 790 -202 1422 -473 2362
-1015 127 -73 390 -227 585 -342 722 -427 1157 -661 1507 -814 79 -34 103 -48
103 -63 0 -11 -109 -233 -242 -495 -384 -752 -475 -942 -589 -1228 -89 -224
-134 -375 -329 -1113 -693 -2620 -903 -3647 -1054 -5165 -192 -1915 -269
-3243 -269 -4655 -1 -1383 72 -2454 229 -3395 421 -2521 1496 -4973 3428
-7815 427 -629 867 -1241 1452 -2020 401 -534 552 -728 965 -1232 331 -403
533 -661 680 -870 314 -443 459 -619 738 -898 346 -346 665 -597 1077 -851
780 -481 1629 -795 3054 -1128 2939 -687 5461 -572 7739 355 174 71 992 427
1276 556 1098 498 1791 942 2355 1507 198 199 321 343 512 598 72 97 186 244
252 327 112 141 192 238 629 760 92 109 167 202 167 206 0 4 -28 10 -62 14
-35 3 -551 56 -1148 116 -1994 203 -3047 316 -3390 366 -1472 212 -2984 865
-4280 1847 -1897 1439 -3183 3459 -3550 5577 -16 96 -59 362 -95 590 -36 228
-92 584 -125 790 -116 731 -207 1495 -279 2340 -108 1268 -94 2280 45 3180 80
520 215 1057 381 1515 832 2298 2269 4063 4298 5276 2439 1459 4868 1914 7365
1378 310 -66 460 -121 538 -197 64 -62 705 -1065 2071 -3241 299 -475 545
-869 547 -875 3 -7 -151 -39 -458 -94 -1671 -301 -2315 -468 -2916 -758 -437
-210 -813 -467 -1396 -953 -714 -594 -1184 -1064 -2412 -2411 -674 -739 -969
-1019 -1384 -1315 -682 -485 -1392 -756 -2181 -831 -95 -9 -706 -49 -1356 -88
-650 -40 -1185 -75 -1188 -78 -4 -3 23 -77 58 -164 238 -588 576 -1172 962
-1664 312 -397 731 -820 1136 -1146 790 -637 1720 -1139 2853 -1541 656 -232
1168 -356 1736 -418 198 -22 731 -31 941 -16 1369 100 2642 673 4109 1850 427
343 902 763 1515 1340 124 117 151 138 157 124 10 -24 70 -268 238 -962 348
-1442 429 -1742 746 -2746 375 -1185 707 -2176 999 -2980 756 -2079 1519
-3732 2413 -5230 69 -115 135 -232 145 -260 26 -64 34 -260 17 -377 -31 -215
-80 -344 -244 -653 -733 -1378 -1258 -2750 -1560 -4075 -318 -1395 -448 -3082
-351 -4535 138 -2040 697 -3860 1703 -5535 206 -343 409 -648 677 -1015 383
-525 640 -942 1220 -1980 265 -474 318 -568 455 -805 348 -599 498 -1062 517
-1590 17 -478 -88 -922 -331 -1405 -123 -243 -226 -406 -415 -658 -177 -235
-216 -300 -354 -592 l-108 -230 83 -77 c46 -43 85 -77 89 -78 3 0 837 411
1855 914 1017 503 1849 913 1850 913 0 -1 -7 -99 -17 -217 -55 -673 -73 -1061
-73 -1595 0 -461 7 -633 40 -965 143 -1448 687 -2508 1685 -3286 317 -248
1586 -1122 1964 -1353 1149 -705 2102 -1048 3113 -1122 212 -15 758 -7 942 15
185 22 422 57 437 65 9 5 -12 46 -68 136 -496 801 -775 1542 -840 2237 -17
185 -7 586 19 753 71 450 223 864 470 1275 88 147 145 231 302 440 311 415
483 732 608 1120 111 346 145 615 140 1130 -3 314 -2 331 25 510 16 102 30
195 33 207 4 20 20 11 177 -100 576 -406 1031 -644 1463 -765 487 -137 983
-136 1484 2 69 19 137 39 153 45 l27 11 -93 107 c-414 481 -656 984 -743 1548
-27 171 -27 634 -1 820 57 402 168 797 352 1255 45 113 170 399 278 635 107
237 270 596 362 800 554 1225 846 1812 1271 2551 1518 2644 2255 5170 2254
7724 -1 1402 -224 2769 -676 4143 -343 1039 -770 1986 -1371 3035 -102 178
-201 362 -220 409 -118 293 -100 550 58 866 18 34 215 368 439 742 854 1426
1025 1757 1435 2790 398 1003 723 1879 1440 3890 222 622 496 1389 610 1705
192 532 324 908 616 1753 62 180 116 327 120 327 4 0 61 -46 126 -103 1938
-1677 3648 -2531 5468 -2732 516 -56 1150 -58 1570 -5 499 64 1096 245 1700
515 585 262 1300 683 1880 1108 438 321 769 601 1123 951 611 604 969 1127
1057 1546 24 112 21 128 -27 169 -22 20 -47 40 -54 44 -7 4 -105 23 -216 42
-1613 273 -3089 833 -4408 1673 -1157 737 -2254 1752 -3158 2921 -312 404
-420 529 -637 744 -739 732 -1717 1242 -2879 1501 -247 55 -522 104 -1081 192
-236 37 -431 68 -433 69 -5 4 1416 2479 1881 3275 426 729 413 709 483 756 64
43 162 79 259 94 80 13 1984 13 2310 0 1192 -47 2050 -180 2853 -442 520 -169
953 -368 1452 -665 290 -173 457 -265 860 -473 911 -470 1178 -621 1510 -853
374 -261 699 -559 944 -864 221 -277 616 -853 851 -1243 1016 -1686 1591
-3490 1739 -5460 49 -652 49 -1430 1 -2130 -60 -851 -204 -1852 -366 -2535
-483 -2034 -1523 -3879 -3006 -5335 -1631 -1601 -3683 -2609 -5903 -2899 -465
-61 -783 -81 -1450 -91 -627 -9 -583 -6 -1205 -99 -181 -27 -375 -55 -430 -62
-55 -7 -105 -15 -112 -18 -7 -4 12 -37 54 -91 36 -47 142 -195 235 -329 233
-333 326 -442 453 -528 17 -11 136 -77 265 -145 129 -69 508 -274 842 -456
776 -423 1085 -587 1488 -786 1124 -557 1983 -865 2941 -1057 2092 -417 4035
-418 5802 -3 1370 321 2660 908 3822 1739 787 562 1491 1208 2208 2025 1032
1176 2003 2535 3007 4210 1143 1906 1897 3458 2391 4918 407 1204 640 2326
724 3482 45 619 43 1665 -5 2570 -211 3973 -1271 7513 -3213 10730 -407 674
-1035 1624 -1556 2355 -2172 3048 -4434 5228 -7051 6795 -755 453 -1528 847
-2640 1347 -2410 1085 -4447 1636 -6395 1732 -687 34 -1053 24 -2055 -55
-2035 -160 -3527 -332 -4945 -570 -763 -128 -909 -167 -1274 -341 -287 -136
-469 -245 -1116 -673 -280 -185 -685 -444 -900 -575 -995 -607 -1318 -861
-1735 -1360 -1185 -1420 -2565 -3199 -4292 -5530 -179 -242 -360 -478 -401
-525 -226 -257 -458 -372 -797 -395 -52 -4 -293 -2 -535 5 -242 6 -1468 15
-2725 20 -2487 9 -2364 6 -2545 65 -96 32 -217 94 -266 138 -53 46 -2145 2588
-2970 3607 -615 760 -1263 1578 -1774 2240 -481 623 -700 876 -1096 1265
-1148 1127 -2510 1897 -4144 2341 -1194 325 -2541 440 -4350 374 -568 -21
-1946 -96 -2390 -130 -4823 -370 -9053 -2124 -12731 -5282 -904 -775 -1930
-1794 -2636 -2617 -515 -599 -938 -1153 -1844 -2412 -531 -739 -923 -1273
-929 -1267 -6 6 182 552 230 669 81 198 108 245 458 769 253 379 434 640 1007
1455 713 1014 859 1228 1009 1482 278 471 298 743 73 1024 -150 188 -340 341
-1042 834 -791 557 -1327 975 -2115 1650 -638 546 -2042 1796 -2143 1908 -253
279 -402 584 -468 957 -15 81 -19 155 -19 325 0 256 12 348 81 627 239 971
601 1706 1132 2301 122 137 240 251 423 408 247 213 1149 1035 1149 1047 0 20
-538 588 -846 892 -1415 1398 -2920 2416 -4610 3121 -160 67 -233 80 -333 59z
m-2103 -7914 c591 -89 1110 -351 1532 -775 150 -150 231 -250 352 -431 266
-399 422 -864 459 -1370 13 -179 8 -276 -27 -523 -138 -981 -487 -1747 -1068
-2345 -666 -684 -1464 -1035 -2211 -973 -356 30 -667 118 -1020 290 -470 228
-748 450 -967 770 -300 438 -404 984 -338 1766 20 245 21 277 10 542 -21 467
-8 662 61 930 81 316 255 660 489 963 115 149 401 428 565 551 181 136 292
204 500 309 323 164 658 265 1015 306 146 17 506 11 648 -10z"/>
<path d="M79219 64681 c-45 -14 -70 -31 -314 -210 -721 -528 -1472 -1103
-3110 -2380 -462 -361 -856 -667 -875 -682 l-33 -25 52 -162 51 -161 43 -11
c1012 -266 1868 -737 2762 -1519 176 -153 705 -687 900 -906 370 -417 864
-1031 1325 -1648 36 -47 71 -85 78 -84 7 1 1327 1037 2933 2301 l2921 2299
-134 86 c-73 47 -504 332 -957 634 -453 302 -924 613 -1045 691 -1460 941
-2468 1389 -3641 1620 -127 25 -310 65 -407 90 -97 25 -216 53 -264 61 -91 16
-241 19 -285 6z"/>
<path d="M38800 64574 c-19 -3 -114 -19 -210 -35 -2112 -366 -3680 -1111
-4885 -2324 -542 -545 -652 -767 -516 -1040 46 -93 153 -219 287 -341 49 -44
253 -220 454 -389 1067 -902 2046 -1757 3198 -2794 479 -431 546 -483 689
-537 200 -75 381 -37 561 118 95 82 149 146 404 477 742 960 1153 1425 1648
1861 638 562 1345 941 2083 1116 83 20 164 40 178 45 14 6 60 45 102 87 l77
77 -31 109 c-16 60 -38 125 -49 146 -18 35 -255 285 -1269 1335 -483 501
-1712 1732 -1843 1846 -133 116 -268 178 -478 220 -93 18 -330 32 -400 23z"/>
<path d="M47020 35143 c-36 -31 -176 -147 -311 -259 -136 -112 -286 -240 -334
-286 -48 -46 -189 -207 -314 -358 -518 -632 -1024 -1238 -2146 -2575 -1959
-2334 -2819 -3389 -3780 -4635 -994 -1289 -2102 -2850 -3342 -4710 -2502
-3754 -5020 -7966 -7730 -12930 -774 -1418 -1181 -2174 -3033 -5640 -632
-1183 -1055 -1970 -1521 -2835 -215 -400 -262 -493 -279 -560 -22 -89 -63
-345 -56 -352 9 -9 499 244 1281 662 757 405 833 445 1245 649 846 421 1414
646 2175 861 1068 303 2154 473 3364 526 346 15 1336 6 1676 -15 1064 -67
1855 -173 3175 -425 1063 -203 1483 -270 1970 -315 558 -52 881 -45 1261 30
1126 219 2151 1031 2708 2143 228 453 369 940 423 1451 13 126 19 673 7 685
-4 3 -168 -67 -365 -156 -587 -264 -798 -348 -1019 -404 -256 -65 -460 -72
-620 -21 -238 76 -410 273 -514 594 -136 416 -223 1346 -192 2052 84 1915 530
3928 1316 5950 607 1559 1453 3222 2481 4877 575 925 1072 1663 2364 3513
1057 1513 1558 2246 1648 2410 140 256 183 494 132 725 -77 347 -217 744 -449
1267 -313 707 -510 1278 -681 1971 -341 1392 -453 2909 -353 4797 20 376 16
446 -51 945 -26 187 -49 359 -52 383 -3 23 -8 42 -12 42 -4 0 -36 -26 -72 -57z
m-16514 -29167 c27 -9 60 -26 72 -38 32 -35 145 -278 192 -413 66 -194 136
-497 143 -619 2 -48 1 -50 -47 -87 -66 -50 -207 -119 -336 -164 -178 -62 -494
-107 -1320 -190 l-465 -47 -43 48 c-24 27 -55 64 -69 81 l-25 33 258 267 c531
553 987 995 1108 1077 42 28 118 54 201 67 76 12 273 3 331 -15z"/>
<path d="M71666 34502 c-78 -103 -98 -137 -107 -180 -21 -103 -25 -250 -16
-592 28 -1112 -35 -2366 -169 -3350 -202 -1483 -549 -2714 -1124 -3990 -48
-107 -100 -232 -114 -278 -76 -243 -74 -483 5 -708 69 -195 126 -289 495 -814
1584 -2254 3134 -4803 4521 -7440 775 -1472 1690 -3355 2144 -4412 1084 -2522
1414 -4498 1083 -6479 -106 -638 -249 -936 -507 -1062 -106 -52 -207 -71 -362
-71 -285 2 -622 81 -1669 395 -312 94 -572 167 -576 162 -5 -4 -13 -54 -19
-111 -150 -1408 1265 -3213 2723 -3472 290 -52 816 -76 1302 -60 366 12 603
26 1219 76 733 58 994 88 2035 234 1557 219 2130 270 2865 257 496 -9 875 -48
1650 -168 1062 -165 1913 -351 4260 -933 1043 -258 1499 -368 2010 -484 l250
-57 310 2 c171 1 360 6 420 10 l111 8 -155 355 c-110 253 -254 554 -501 1045
-1867 3712 -3781 7169 -5657 10223 -1072 1745 -3380 5360 -4710 7377 -3803
5770 -7025 9969 -10459 13630 -354 378 -401 421 -886 798 l-277 215 -95 -126z
m17327 -28531 c176 -61 299 -173 532 -486 205 -273 330 -457 721 -1061 l335
-518 -97 -97 -96 -97 -122 43 c-66 24 -317 109 -556 190 -658 223 -995 353
-1345 519 -172 82 -198 102 -219 162 -29 85 -40 247 -27 395 38 444 151 705
376 864 80 57 113 73 198 96 89 24 214 20 300 -10z"/>
</g>
</svg>
